<svg version="1.1" id="Layer_1" xmlns="http://www.w3.org/2000/svg" x="0" y="0" viewBox="0 0 629.9 141.1" xml:space="preserve"><path fill="#EC1C24" d="M415.9 104.8H630v24.3H415.9zm-176.8 36.3c-9.6 0-19-2.7-27.3-8l5.6-8.8c9.2 5.8 20.2 7.7 30.8 5.4 10.7-2.4 19.7-8.8 25.6-18 12.1-19 6.4-44.4-12.7-56.4l5.6-8.8c11.6 7.3 19.6 18.7 22.6 32.1 3 13.4.6 27.1-6.7 38.7-7.3 11.6-18.7 19.6-32.1 22.6-3.9.8-7.7 1.2-11.4 1.2zm-3-46.5c-11.6-7.3-19.6-18.7-22.6-32.1-3-13.4-.6-27.1 6.7-38.7C235.3-.1 267.1-7.2 291 7.9l-5.6 8.8c-9.2-5.8-20.2-7.7-30.8-5.4-10.7 2.4-19.7 8.8-25.6 18s-7.7 20.2-5.4 30.8c2.4 10.7 8.8 19.7 18 25.6l-5.5 8.9z"/><path d="M0 48.8h8.9L29.6 76V48.8h9.6v44.1h-8.3l-21.4-28v28H0V48.8zm51.1 0h33.3v8.6H60.8v8.9h20.8V75H60.8v9.3h23.9v8.6H51.1V48.8zm40 0h10.4l9.1 29.9 9.9-30h8.3l9.9 30 9.1-29.9H158l-15 44.4h-8.4l-10-28.8-10 28.8h-8.4L91.1 48.8zm70.5 37.7l5.7-6.9c4 3.3 8.1 5.4 13.2 5.4 4 0 6.4-1.6 6.4-4.2v-.1c0-2.5-1.5-3.7-8.9-5.6-8.9-2.3-14.6-4.7-14.6-13.5v-.1c0-8 6.4-13.3 15.4-13.3 6.4 0 11.9 2 16.4 5.6l-5 7.3c-3.9-2.7-7.7-4.3-11.5-4.3-3.7 0-5.7 1.7-5.7 3.8v.1c0 2.9 1.9 3.8 9.5 5.8 8.9 2.3 14 5.5 14 13.2v.1c0 8.8-6.7 13.7-16.2 13.7-6.7.1-13.4-2.3-18.7-7zm144.9 0l5.7-6.9c4 3.3 8.1 5.4 13.2 5.4 4 0 6.4-1.6 6.4-4.2v-.1c0-2.5-1.5-3.7-8.9-5.6-8.9-2.3-14.6-4.7-14.6-13.5v-.1c0-8 6.4-13.3 15.4-13.3 6.4 0 11.9 2 16.4 5.6l-5 7.3c-3.9-2.7-7.7-4.3-11.5-4.3-3.7 0-5.7 1.7-5.7 3.8v.1c0 2.9 1.9 3.8 9.5 5.8 8.9 2.3 14 5.5 14 13.2v.1c0 8.8-6.7 13.7-16.2 13.7-6.6.1-13.4-2.3-18.7-7zM351 48.8h9.7v17.4h17.9V48.8h9.7v44.1h-9.7V75.2h-17.9v17.7H351V48.8zM398 71v-.1c0-12.5 9.9-22.8 23.5-22.8s23.4 10.1 23.4 22.7v.1c0 12.5-9.9 22.8-23.5 22.8-13.7 0-23.4-10.2-23.4-22.7zm36.7 0v-.1c0-7.6-5.5-13.9-13.4-13.9-7.8 0-13.2 6.2-13.2 13.7v.1c0 7.6 5.5 13.9 13.4 13.9 7.8 0 13.2-6.1 13.2-13.7zm17.4 0v-.1c0-12.5 9.9-22.8 23.5-22.8S499 58.2 499 70.8v.1c0 12.5-9.9 22.8-23.5 22.8S452.1 83.5 452.1 71zm36.8 0v-.1c0-7.6-5.5-13.9-13.4-13.9s-13.2 6.2-13.2 13.7v.1c0 7.6 5.5 13.9 13.4 13.9 7.7 0 13.2-6.1 13.2-13.7zm28.3-13.2h-13.4v-8.9h36.5v8.9h-13.4v35.1h-9.7V57.8zm30.8-9h33.3v8.6h-23.6v8.9h20.8V75h-20.8v9.3h23.9v8.6H548V48.8zm43.8 0H612c5.6 0 10 1.6 12.8 4.5 2.5 2.5 3.8 5.9 3.8 10.1v.1c0 7.1-3.8 11.6-9.4 13.7L630 92.9h-11.3l-9.4-14.1h-7.6v14.1H592V48.8zm19.5 21.5c4.7 0 7.4-2.5 7.4-6.2V64c0-4.2-2.9-6.3-7.6-6.3h-9.6v12.7h9.8z" fill="#231F20"/><path d="M431.3 121.8v-7h-1.6v-2.5h4.8v9.5h-3.2zm30.5-4.8c0 3.1-1.6 4.8-4.3 4.8-2.8 0-4.4-1.7-4.4-4.8 0-3.1 1.5-4.8 4.4-4.8 2.7 0 4.3 1.7 4.3 4.8zm-5.5 0c0 1.9.3 2.6 1.1 2.6s1.1-.6 1.1-2.6c0-1.9-.3-2.6-1.1-2.6s-1.1.7-1.1 2.6zm49.4 4.8h-3.1v-2.9l-3.5-6.6h3.1l1.9 3.7 1.8-3.7h3.1l-3.4 6.5v3zm24.1-7.2v1.2h4.4v2.4h-4.4v1.2h5v2.4h-8.1v-9.5h8v2.4h-4.9zm26.2 5.8l-.5 1.3h-3.2l4-9.5h3.2l3.9 9.5H560l-.5-1.3H556zm1.8-5l-1 2.8h2l-1-2.8zm27.5 3.9h-1.2v2.5H581v-9.5h4.6c2.6 0 4 1.2 4 3.4 0 1.4-.5 2.4-1.5 3l1.9 3.1h-3.5l-1.2-2.5zm.3-2.4c.7 0 1.1-.4 1.1-1.2 0-.7-.4-1.1-1.1-1.1h-1.4v2.3h1.4zm30.5-3.6l-1.1 2.4c-1-.5-2.4-1.1-3.3-1.1-.4 0-.6.1-.6.4 0 1.2 4.9.4 4.9 3.9 0 2.1-1.9 3-4 3-1.7 0-3.5-.6-4.8-1.5l1.2-2.4c1 .8 2.7 1.5 3.6 1.5.5 0 .8-.1.8-.5 0-1.2-4.9-.4-4.9-3.7 0-1.9 1.6-3.1 4.1-3.1 1.5-.1 3 .4 4.1 1.1z" fill="#FFF"/><path d="M7.9 114.6c0 1.1-.8 2.2-1.9 3.3l-1.5 1.5H8v2.4H.5v-2l3.3-3.5c.4-.4.7-.9.7-1.2 0-.3-.2-.5-.6-.5-.7 0-1.7.5-2.6 1.2l-1.2-2.3c1.4-.9 2.8-1.5 4.3-1.5 2 0 3.5 1.1 3.5 2.6zm23 2.4c0 3.2-1.6 4.9-4.4 4.9-2.9 0-4.4-1.8-4.4-4.9 0-3.2 1.6-4.9 4.4-4.9 2.8 0 4.4 1.7 4.4 4.9zm-5.6 0c0 2 .3 2.6 1.2 2.6.9 0 1.1-.7 1.1-2.6s-.3-2.6-1.1-2.6c-.9 0-1.2.6-1.2 2.6zm28.6 0c0 3.2-1.6 4.9-4.4 4.9-2.9 0-4.4-1.8-4.4-4.9 0-3.2 1.6-4.9 4.4-4.9 2.8 0 4.4 1.7 4.4 4.9zm-5.6 0c0 2 .3 2.6 1.2 2.6.9 0 1.1-.7 1.1-2.6s-.3-2.6-1.1-2.6c-.9 0-1.2.6-1.2 2.6zm19.6 4.1l1.2-2.2c.5.4 1.2.6 1.9.6 1.2 0 1.9-.5 1.9-1.6-.4.4-1.1.7-2 .7-1.9 0-3.1-1.3-3.1-3.2 0-2.1 1.5-3.4 3.8-3.4 2.7 0 4.4 1.9 4.4 4.9 0 3.1-1.9 5.1-4.7 5.1-1.2-.1-2.5-.4-3.4-.9zm4.7-5.7c0-.6-.3-.9-.9-.9-.6 0-.9.3-.9.9 0 .6.3.9.9.9.6 0 .9-.3.9-.9zm17 3.5V117H98v1.9h-8.4zm29.5-4.3c0 1.1-.8 2.2-1.9 3.3l-1.5 1.5h3.5v2.4h-7.5v-2l3.3-3.5c.4-.4.7-.9.7-1.2 0-.3-.2-.5-.6-.5-.7 0-1.7.5-2.6 1.2l-1.2-2.3c1.4-.9 2.8-1.5 4.3-1.5 2 0 3.5 1.1 3.5 2.6zm23 2.4c0 3.2-1.6 4.9-4.4 4.9-2.9 0-4.4-1.8-4.4-4.9 0-3.2 1.6-4.9 4.4-4.9 2.8 0 4.4 1.7 4.4 4.9zm-5.6 0c0 2 .3 2.6 1.2 2.6.9 0 1.1-.7 1.1-2.6s-.3-2.6-1.1-2.6c-.9 0-1.2.6-1.2 2.6zm20.9 4.8v-7.1h-1.7v-2.5h4.9v9.6h-3.2zm17.9-.7l1.2-2.2c.5.4 1.2.6 1.9.6 1.2 0 1.9-.5 1.9-1.6-.4.4-1.1.7-2 .7-1.9 0-3.1-1.3-3.1-3.2 0-2.1 1.5-3.4 3.8-3.4 2.7 0 4.4 1.9 4.4 4.9 0 3.1-1.9 5.1-4.7 5.1-1.3-.1-2.6-.4-3.4-.9zm4.7-5.7c0-.6-.3-.9-.9-.9-.6 0-.9.3-.9.9 0 .6.3.9.9.9.6 0 .9-.3.9-.9z" fill="#EC1C24"/></svg>