<svg version="1.1" id="Layer_1" xmlns="http://www.w3.org/2000/svg" x="0" y="0" viewBox="-69 23.2 238 53.7" xml:space="preserve"><path fill="#EC1C24" d="M75.4 65.2H169v11.7H75.4z"/><g fill="#EC1C24"><path d="M21.3 76.5c-3.6 0-7.2-1-10.3-3l2.1-3.3c3.5 2.2 7.6 2.9 11.6 2 4-.9 7.4-3.3 9.7-6.8 4.6-7.2 2.4-16.8-4.8-21.3l2.1-3.3c4.4 2.8 7.4 7.1 8.5 12.1 1.1 5.1.2 10.2-2.5 14.6-2.8 4.4-7.1 7.4-12.1 8.5-1.4.4-2.9.5-4.3.5z"/><path d="M20.2 59c-4.4-2.8-7.4-7.1-8.5-12.1s-.2-10.2 2.5-14.6c5.7-9 17.7-11.7 26.7-6l-2.1 3.3c-3.5-2.2-7.6-2.9-11.6-2-4 .9-7.4 3.3-9.7 6.8s-2.9 7.6-2 11.6c.9 4 3.3 7.4 6.8 9.7L20.2 59z"/></g><path d="M-69 41.7h3.4l7.8 10.3V41.7h3.6v16.7h-3.1l-8.1-10.6v10.6H-69V41.7zm19.3 0h12.6v3.2H-46v3.4h7.9v3.3H-46v3.5h9v3.2h-12.7V41.7zm15.1 0h3.9l3.4 11.3 3.7-11.3h3.1l3.7 11.3 3.4-11.3h3.9L-15 58.4h-3.2L-22 47.5l-3.8 10.9H-29l-5.6-16.7zm26.7 14.2l2.2-2.6c1.5 1.2 3.1 2 5 2 1.5 0 2.4-.6 2.4-1.6 0-.9-.6-1.4-3.4-2.1-3.4-.9-5.5-1.8-5.5-5.1 0-3 2.4-5 5.8-5 2.4 0 4.5.8 6.2 2.1l-1.9 2.8c-1.5-1-2.9-1.6-4.3-1.6s-2.2.6-2.2 1.4c0 1.1.7 1.4 3.6 2.2 3.4.9 5.3 2.1 5.3 5 0 3.3-2.5 5.2-6.1 5.2-2.6 0-5.1-.9-7.1-2.7zm54.7 0l2.2-2.6c1.5 1.2 3.1 2 5 2 1.5 0 2.4-.6 2.4-1.6 0-.9-.6-1.4-3.4-2.1-3.4-.9-5.5-1.8-5.5-5.1 0-3 2.4-5 5.8-5 2.4 0 4.5.8 6.2 2.1l-1.9 2.8c-1.5-1-2.9-1.6-4.3-1.6s-2.2.6-2.2 1.4c0 1.1.7 1.4 3.6 2.2 3.4.9 5.3 2.1 5.3 5 0 3.3-2.5 5.2-6.1 5.2-2.5 0-5.1-.9-7.1-2.7zm16.8-14.2h3.7v6.6H74v-6.6h3.7v16.7H74v-6.7h-6.8v6.7h-3.7V41.7zm17.8 8.4c0-4.8 3.7-8.7 8.9-8.7s8.8 3.8 8.8 8.6c0 4.7-3.7 8.6-8.9 8.6s-8.8-3.8-8.8-8.5zm13.8 0c0-2.9-2.1-5.3-5.1-5.3-2.9 0-5 2.3-5 5.2 0 2.9 2.1 5.3 5.1 5.3 3-.1 5-2.4 5-5.2zm6.6 0c0-4.8 3.7-8.7 8.9-8.7s8.8 3.8 8.8 8.6c0 4.7-3.7 8.6-8.9 8.6-5.1 0-8.8-3.8-8.8-8.5zm13.9 0c0-2.9-2.1-5.3-5.1-5.3-3 0-5 2.3-5 5.2 0 2.9 2.1 5.3 5.1 5.3 2.9-.1 5-2.4 5-5.2zm10.7-5h-5.1v-3.4h13.8v3.4H130v13.3h-3.7V45.1zm11.6-3.4h12.6v3.2h-8.9v3.4h7.9v3.3h-7.9v3.5h9v3.2H138V41.7zm16.6 0h7.6c2.1 0 3.8.6 4.8 1.7.9.9 1.4 2.2 1.4 3.8 0 2.7-1.4 4.4-3.6 5.2l4.1 5.9h-4.3L161 53h-2.9v5.3h-3.7l.2-16.6zm7.3 8.1c1.8 0 2.8-.9 2.8-2.3 0-1.6-1.1-2.4-2.9-2.4h-3.6v4.8l3.7-.1z" fill="#231F20"/><path fill="#FFF" d="M84.4 74.4v-4.9h-1.1v-1.8h3.4v6.7h-2.3zM98.8 71c0 2.2-1.1 3.4-3 3.4-2 0-3.1-1.2-3.1-3.4s1.1-3.4 3.1-3.4c1.8 0 3 1.2 3 3.4zm-3.9 0c0 1.3.2 1.8.8 1.8.6 0 .8-.4.8-1.8 0-1.3-.2-1.8-.8-1.8-.6 0-.8.5-.8 1.8zm20.6 3.4h-2.2v-2l-2.5-4.7h2.2l1.3 2.6 1.3-2.6h2.2l-2.4 4.6.1 2.1zm9.9-5.1v.8h3.1v1.7h-3.1v.8h3.5v1.7h-5.7v-6.7h5.6v1.7h-3.4zm11.3 4.1l-.4.9H134l2.8-6.7h2.3l2.8 6.7h-2.4l-.4-.9h-2.4zm1.3-3.5l-.7 2h1.4l-.7-2zm12.3 2.8h-.8v1.8h-2.2v-6.7h3.2c1.8 0 2.8.8 2.8 2.4 0 1-.4 1.7-1.1 2.1l1.3 2.2H151l-.7-1.8zm.2-1.7c.5 0 .8-.3.8-.8s-.3-.8-.8-.8h-1V71h1zm14.4-2.6l-.8 1.7c-.7-.4-1.7-.8-2.3-.8-.3 0-.4.1-.4.3 0 .8 3.5.3 3.5 2.8 0 1.5-1.3 2.1-2.8 2.1-1.2 0-2.5-.4-3.4-1.1l.8-1.7c.7.6 1.9 1.1 2.5 1.1.4 0 .6-.1.6-.4 0-.8-3.5-.3-3.5-2.6 0-1.3 1.1-2.2 2.9-2.2 1.1 0 2.1.3 2.9.8z"/></svg>