<svg version="1.1" id="Layer_1" xmlns="http://www.w3.org/2000/svg" x="0" y="0" viewBox="0 38.8 100 22.6" xml:space="preserve"><path fill="#EC1C24" d="M60.7 56.4H100v4.9H60.7zM38 61.2c-1.5 0-3-.4-4.3-1.3l.9-1.4c1.5.9 3.2 1.2 4.9.9 1.7-.4 3.1-1.4 4.1-2.9 1.9-3 1-7-2-9l.9-1.4c1.8 1.2 3.1 3 3.6 5.1.5 2.1.1 4.3-1.1 6.1-1.2 1.8-3 3.1-5.1 3.6-.8.2-1.4.3-1.9.3zm-.5-7.4c-1.8-1.2-3.1-3-3.6-5.1-.5-2.1-.1-4.3 1.1-6.1 2.4-3.8 7.4-4.9 11.2-2.5l-.9 1.4c-1.5-.9-3.2-1.2-4.9-.9-1.7.4-3.1 1.4-4.1 2.9s-1.2 3.2-.9 4.9c.4 1.7 1.4 3.1 2.9 4.1l-.8 1.3z"/><path d="M0 46.5h1.4l3.3 4.3v-4.3h1.5v7H4.9l-3.4-4.4v4.4H0v-7zm8.1 0h5.3v1.4H9.7v1.4H13v1.4H9.7v1.5h3.8v1.4H8.1v-7.1zm6.4 0h1.7l1.4 4.7 1.6-4.8h1.3l1.6 4.8 1.4-4.7h1.6l-2.4 7h-1.3L19.8 49l-1.6 4.6h-1.3l-2.4-7.1zm11.2 6l.9-1.1c.6.5 1.3.9 2.1.9.6 0 1-.3 1-.7 0-.4-.2-.6-1.4-.9-1.4-.4-2.3-.7-2.3-2.1 0-1.3 1-2.1 2.4-2.1 1 0 1.9.3 2.6.9l-.8 1.2c-.6-.4-1.2-.7-1.8-.7-.6 0-.9.3-.9.6 0 .5.3.6 1.5.9 1.4.4 2.2.9 2.2 2.1 0 1.4-1.1 2.2-2.6 2.2-1 0-2.1-.4-2.9-1.2zm23 0l.9-1.1c.6.5 1.3.9 2.1.9.6 0 1-.3 1-.7 0-.4-.2-.6-1.4-.9-1.4-.4-2.3-.7-2.3-2.1 0-1.3 1-2.1 2.4-2.1 1 0 1.9.3 2.6.9l-.8 1.2c-.6-.4-1.2-.7-1.8-.7-.6 0-.9.3-.9.6 0 .5.3.6 1.5.9 1.4.4 2.2.9 2.2 2.1 0 1.4-1.1 2.2-2.6 2.2-1 0-2.1-.4-2.9-1.2zm7-6h1.5v2.8H60v-2.8h1.5v7H60v-2.8h-2.8v2.8h-1.5v-7zm7.5 3.6c0-2 1.6-3.6 3.7-3.6 2.2 0 3.7 1.6 3.7 3.6s-1.6 3.6-3.7 3.6c-2.2 0-3.7-1.6-3.7-3.6zm5.8 0c0-1.2-.9-2.2-2.1-2.2-1.2 0-2.1 1-2.1 2.2 0 1.2.9 2.2 2.1 2.2 1.3-.1 2.1-1 2.1-2.2zm2.8 0c0-2 1.6-3.6 3.7-3.6s3.7 1.6 3.7 3.6-1.6 3.6-3.7 3.6-3.7-1.6-3.7-3.6zm5.8 0c0-1.2-.9-2.2-2.1-2.2s-2.1 1-2.1 2.2c0 1.2.9 2.2 2.1 2.2 1.2-.1 2.1-1 2.1-2.2zm4.5-2.1H80v-1.4h5.8V48h-2.1v5.6h-1.5V48zm4.9-1.5h5.3v1.4h-3.7v1.4h3.3v1.4h-3.3v1.5h3.8v1.4H87v-7.1zm7 0h3.2c.9 0 1.6.3 2 .7.4.4.6.9.6 1.6 0 1.1-.6 1.8-1.5 2.2l1.7 2.5h-1.8l-1.5-2.2h-1.2v2.2H94v-7zm3 3.5c.7 0 1.2-.4 1.2-1 0-.7-.5-1-1.2-1h-1.5v2H97z" fill="#231F20"/><path fill="#FFF" d="M64.4 60.3v-2.1H64v-.7h1.4v2.8h-1zm6.1-1.4c0 .9-.5 1.4-1.3 1.4s-1.3-.5-1.3-1.4c0-.9.4-1.4 1.3-1.4.8 0 1.3.5 1.3 1.4zm-1.6 0c0 .6.1.8.3.8s.3-.2.3-.8c0-.6-.1-.8-.3-.8-.2 0-.3.2-.3.8zm8.6 1.4h-.9v-.9l-1-2h.9l.6 1.1.5-1.1h.9l-1 1.9v1zm4.2-2.1v.4H83v.7h-1.3v.4h1.5v.7h-2.4v-2.8h2.4v.7l-1.5-.1zm4.8 1.7l-.1.4h-.9l1.2-2.8h.9l1.2 2.8h-1l-.1-.4h-1.2zm.5-1.5l-.3.8h.6l-.3-.8zm5.1 1.2h-.4v.7h-.9v-2.8h1.4c.8 0 1.2.4 1.2 1 0 .4-.1.7-.4.9l.6.9h-1l-.5-.7zm.1-.7c.2 0 .3-.1.3-.4 0-.2-.1-.3-.3-.3h-.4v.7h.4zm6.1-1.1l-.3.7c-.3-.1-.7-.3-1-.3-.1 0-.2 0-.2.1 0 .4 1.5.1 1.5 1.2 0 .6-.6.9-1.2.9-.5 0-1-.2-1.4-.4l.4-.7c.3.2.8.4 1.1.4.1 0 .2 0 .2-.1 0-.4-1.5-.1-1.5-1.1 0-.6.5-.9 1.2-.9.4-.2.9 0 1.2.2z"/></svg>