<svg version="1.1" xmlns="http://www.w3.org/2000/svg" x="0" y="0" width="1575.8" height="353.1" viewBox="0 0 1575.8 353.1" xml:space="preserve"><path class="newsshooter-circle circle-left" fill="none" stroke="#ED1C24" stroke-width="26" stroke-miterlimit="10" d="M721 30.9C667.2-3.2 596 12.8 561.9 66.6s-18.1 125 35.7 159.1"/><path class="newsshooter-circle circle-right" fill="none" stroke="#ED1C24" stroke-width="26" stroke-miterlimit="10" d="M536.6 322.1c53.8 34.1 125 18.1 159.1-35.7s18.1-125-35.7-159.1"/><path d="M0 122.2h22.4L74 190.1v-67.9h24v110.3H77.4L24 162.4v70.1H0V122.2zm127.9 0h83.2v21.6H152v22.4h52v21.6h-52V211h59.9v21.6h-84V122.2zm100.1 0h26l22.8 74.7 24.7-75h20.8l24.7 75 22.8-74.7h25.4l-37.7 111.1h-21.1l-24.8-72.2-24.9 72.2h-21.1L228 122.2zm176.2 94.2l14.3-17.2c9.9 8.2 20.3 13.4 32.9 13.4 9.9 0 15.9-3.9 15.9-10.4v-.3c0-6.1-3.8-9.3-22.2-14-22.2-5.7-36.6-11.8-36.6-33.7v-.3c0-20 16.1-33.2 38.6-33.2 16.1 0 29.8 5 41 14L475.5 153c-9.8-6.8-19.4-10.9-28.7-10.9s-14.2 4.3-14.2 9.6v.3c0 7.2 4.7 9.6 23.8 14.5 22.4 5.8 35 13.9 35 33.1v.3c0 21.9-16.7 34.2-40.5 34.2-16.6 0-33.4-5.9-46.7-17.7zm362.6 0l14.3-17.2c9.9 8.2 20.3 13.4 32.9 13.4 9.9 0 15.9-3.9 15.9-10.4v-.3c0-6.1-3.8-9.3-22.2-14-22.2-5.7-36.6-11.8-36.6-33.7v-.3c0-20 16.1-33.2 38.6-33.2 16.1 0 29.8 5 41 14L838.1 153c-9.8-6.8-19.4-10.9-28.7-10.9s-14.2 4.3-14.2 9.6v.3c0 7.2 4.7 9.6 23.8 14.5 22.4 5.8 35 13.9 35 33.1v.3c0 21.9-16.7 34.2-40.5 34.2-16.6 0-33.5-5.9-46.7-17.7zm111.3-94.2h24.3v43.6h44.7v-43.6h24.3v110.3h-24.3v-44.3h-44.7v44.3h-24.3V122.2zm117.5 55.5v-.3c0-31.4 24.7-57 58.8-57 34 0 58.5 25.4 58.5 56.7v.3c0 31.4-24.7 57-58.8 57-34.1 0-58.5-25.4-58.5-56.7zm91.8 0v-.3c0-18.9-13.9-34.7-33.4-34.7s-33.1 15.4-33.1 34.3v.3c0 18.9 13.9 34.7 33.4 34.7 19.6 0 33.1-15.4 33.1-34.3zm43.6 0v-.3c0-31.4 24.7-57 58.8-57s58.5 25.4 58.5 56.7v.3c0 31.4-24.7 57-58.8 57S1131 209 1131 177.7zm91.9 0v-.3c0-18.9-13.9-34.7-33.4-34.7s-33.1 15.4-33.1 34.3v.3c0 18.9 13.9 34.7 33.4 34.7 19.6 0 33.1-15.4 33.1-34.3zm71-33.1h-33.6v-22.4h91.4v22.4h-33.6v87.9h-24.3l.1-87.9zm76.9-22.4h83.2v21.6h-59.1v22.4h52v21.6h-52V211h59.9v21.6h-84V122.2zm109.7 0h50.4c14 0 24.9 3.9 32.1 11.2 6.1 6.1 9.5 14.8 9.5 25.2v.3c0 17.8-9.6 29-23.6 34.2l26.9 39.4h-28.4l-23.6-35.3h-19.1v35.3h-24.3l.1-110.3zm48.8 53.6c11.8 0 18.6-6.3 18.6-15.6v-.3c0-10.4-7.2-15.8-19.1-15.8h-24.1v31.7h24.6z"/></svg>