<?xml version="1.0" encoding="utf-8"?>
<!-- Generator: Adobe Illustrator 18.0.0, SVG Export Plug-In . SVG Version: 6.00 Build 0)  -->
<!DOCTYPE svg PUBLIC "-//W3C//DTD SVG 1.1//EN" "http://www.w3.org/Graphics/SVG/1.1/DTD/svg11.dtd">
<svg version="1.1" id="Layer_1" xmlns="http://www.w3.org/2000/svg" xmlns:xlink="http://www.w3.org/1999/xlink" x="0px" y="0px"
	 viewBox="0 0 629.9 141.1" enable-background="new 0 0 629.9 141.1" xml:space="preserve">
<rect x="415.9" y="104.8" fill="#EC1C24" width="214.1" height="24.3"/>
<g>
	<path fill="#EC1C24" d="M239.1,141.1c-9.6,0-19-2.7-27.3-8l5.6-8.8c9.2,5.8,20.2,7.7,30.8,5.4c10.7-2.4,19.7-8.8,25.6-18
		c12.1-19,6.4-44.4-12.7-56.4l5.6-8.8c11.6,7.3,19.6,18.7,22.6,32.1c3,13.4,0.6,27.1-6.7,38.7c-7.3,11.6-18.7,19.6-32.1,22.6
		C246.6,140.7,242.8,141.1,239.1,141.1z"/>
	<path fill="#EC1C24" d="M236.1,94.6c-11.6-7.3-19.6-18.7-22.6-32.1c-3-13.4-0.6-27.1,6.7-38.7c15.1-23.9,46.9-31,70.8-15.9
		l-5.6,8.8c-9.2-5.8-20.2-7.7-30.8-5.4c-10.7,2.4-19.7,8.8-25.6,18s-7.7,20.2-5.4,30.8c2.4,10.7,8.8,19.7,18,25.6L236.1,94.6z"/>
</g>
<g>
	<path fill="#231F20" d="M0,48.8h8.9L29.6,76V48.8h9.6v44.1h-8.3l-21.4-28v28H0V48.8z"/>
	<path fill="#231F20" d="M51.1,48.8h33.3v8.6H60.8v8.9h20.8V75H60.8v9.3h23.9v8.6H51.1V48.8z"/>
	<path fill="#231F20" d="M91.1,48.8h10.4l9.1,29.9l9.9-30h8.3l9.9,30l9.1-29.9H158L143,93.2h-8.4l-10-28.8l-10,28.8h-8.4L91.1,48.8z
		"/>
	<path fill="#231F20" d="M161.6,86.5l5.7-6.9c4,3.3,8.1,5.4,13.2,5.4c4,0,6.4-1.6,6.4-4.2v-0.1c0-2.5-1.5-3.7-8.9-5.6
		c-8.9-2.3-14.6-4.7-14.6-13.5v-0.1c0-8,6.4-13.3,15.4-13.3c6.4,0,11.9,2,16.4,5.6l-5,7.3c-3.9-2.7-7.7-4.3-11.5-4.3
		c-3.7,0-5.7,1.7-5.7,3.8v0.1c0,2.9,1.9,3.8,9.5,5.8c8.9,2.3,14,5.5,14,13.2v0.1c0,8.8-6.7,13.7-16.2,13.7
		C173.6,93.6,166.9,91.2,161.6,86.5z"/>
	<path fill="#231F20" d="M306.5,86.5l5.7-6.9c4,3.3,8.1,5.4,13.2,5.4c4,0,6.4-1.6,6.4-4.2v-0.1c0-2.5-1.5-3.7-8.9-5.6
		c-8.9-2.3-14.6-4.7-14.6-13.5v-0.1c0-8,6.4-13.3,15.4-13.3c6.4,0,11.9,2,16.4,5.6l-5,7.3c-3.9-2.7-7.7-4.3-11.5-4.3
		c-3.7,0-5.7,1.7-5.7,3.8v0.1c0,2.9,1.9,3.8,9.5,5.8c8.9,2.3,14,5.5,14,13.2v0.1c0,8.8-6.7,13.7-16.2,13.7
		C318.6,93.6,311.8,91.2,306.5,86.5z"/>
	<path fill="#231F20" d="M351,48.8h9.7v17.4h17.9V48.8h9.7v44.1h-9.7V75.2h-17.9v17.7H351V48.8z"/>
	<path fill="#231F20" d="M398,71v-0.1c0-12.5,9.9-22.8,23.5-22.8s23.4,10.1,23.4,22.7v0.1c0,12.5-9.9,22.8-23.5,22.8
		C407.7,93.7,398,83.5,398,71z M434.7,71v-0.1c0-7.6-5.5-13.9-13.4-13.9c-7.8,0-13.2,6.2-13.2,13.7v0.1c0,7.6,5.5,13.9,13.4,13.9
		C429.3,84.7,434.7,78.6,434.7,71z"/>
	<path fill="#231F20" d="M452.1,71v-0.1c0-12.5,9.9-22.8,23.5-22.8c13.6,0,23.4,10.1,23.4,22.7v0.1c0,12.5-9.9,22.8-23.5,22.8
		C461.9,93.7,452.1,83.5,452.1,71z M488.9,71v-0.1c0-7.6-5.5-13.9-13.4-13.9s-13.2,6.2-13.2,13.7v0.1c0,7.6,5.5,13.9,13.4,13.9
		C483.4,84.7,488.9,78.6,488.9,71z"/>
	<path fill="#231F20" d="M517.2,57.8h-13.4v-8.9h36.5v8.9h-13.4v35.1h-9.7V57.8z"/>
	<path fill="#231F20" d="M548,48.8h33.3v8.6h-23.6v8.9h20.8V75h-20.8v9.3h23.9v8.6H548V48.8z"/>
	<path fill="#231F20" d="M591.8,48.8H612c5.6,0,10,1.6,12.8,4.5c2.5,2.5,3.8,5.9,3.8,10.1v0.1c0,7.1-3.8,11.6-9.4,13.7l10.8,15.7
		h-11.3l-9.4-14.1h-7.6v14.1h-9.7V48.8z M611.3,70.3c4.7,0,7.4-2.5,7.4-6.2v-0.1c0-4.2-2.9-6.3-7.6-6.3h-9.6v12.7H611.3z"/>
</g>
<g>
	<path fill="#FFFFFF" d="M431.3,121.8v-7h-1.6v-2.5h4.8v9.5H431.3z"/>
	<path fill="#FFFFFF" d="M461.8,117c0,3.1-1.6,4.8-4.3,4.8c-2.8,0-4.4-1.7-4.4-4.8c0-3.1,1.5-4.8,4.4-4.8
		C460.2,112.2,461.8,113.9,461.8,117z M456.3,117c0,1.9,0.3,2.6,1.1,2.6c0.8,0,1.1-0.6,1.1-2.6c0-1.9-0.3-2.6-1.1-2.6
		C456.6,114.4,456.3,115.1,456.3,117z"/>
	<path fill="#FFFFFF" d="M505.7,121.8h-3.1v-2.9l-3.5-6.6h3.1l1.9,3.7l1.8-3.7h3.1l-3.4,6.5V121.8z"/>
	<path fill="#FFFFFF" d="M529.8,114.6v1.2h4.4v2.4h-4.4v1.2h5v2.4h-8.1v-9.5h8v2.4H529.8z"/>
	<path fill="#FFFFFF" d="M556,120.4l-0.5,1.3h-3.2l4-9.5h3.2l3.9,9.5H560l-0.5-1.3H556z M557.8,115.4l-1,2.8h2L557.8,115.4z"/>
	<path fill="#FFFFFF" d="M585.3,119.3h-1.2v2.5H581v-9.5h4.6c2.6,0,4,1.2,4,3.4c0,1.4-0.5,2.4-1.5,3l1.9,3.1h-3.5L585.3,119.3z
		 M585.6,116.9c0.7,0,1.1-0.4,1.1-1.2c0-0.7-0.4-1.1-1.1-1.1h-1.4v2.3H585.6z"/>
	<path fill="#FFFFFF" d="M616.1,113.3l-1.1,2.4c-1-0.5-2.4-1.1-3.3-1.1c-0.4,0-0.6,0.1-0.6,0.4c0,1.2,4.9,0.4,4.9,3.9
		c0,2.1-1.9,3-4,3c-1.7,0-3.5-0.6-4.8-1.5l1.2-2.4c1,0.8,2.7,1.5,3.6,1.5c0.5,0,0.8-0.1,0.8-0.5c0-1.2-4.9-0.4-4.9-3.7
		c0-1.9,1.6-3.1,4.1-3.1C613.5,112.1,615,112.6,616.1,113.3z"/>
</g>
<g>
	<path fill="#EC1C24" d="M7.9,114.6c0,1.1-0.8,2.2-1.9,3.3l-1.5,1.5h3.5v2.4H0.5v-2l3.3-3.5c0.4-0.4,0.7-0.9,0.7-1.2
		c0-0.3-0.2-0.5-0.6-0.5c-0.7,0-1.7,0.5-2.6,1.2l-1.2-2.3c1.4-0.9,2.8-1.5,4.3-1.5C6.4,112,7.9,113.1,7.9,114.6z"/>
	<path fill="#EC1C24" d="M30.9,117c0,3.2-1.6,4.9-4.4,4.9c-2.9,0-4.4-1.8-4.4-4.9c0-3.2,1.6-4.9,4.4-4.9
		C29.3,112.1,30.9,113.8,30.9,117z M25.3,117c0,2,0.3,2.6,1.2,2.6c0.9,0,1.1-0.7,1.1-2.6s-0.3-2.6-1.1-2.6
		C25.6,114.4,25.3,115,25.3,117z"/>
	<path fill="#EC1C24" d="M53.9,117c0,3.2-1.6,4.9-4.4,4.9c-2.9,0-4.4-1.8-4.4-4.9c0-3.2,1.6-4.9,4.4-4.9
		C52.3,112.1,53.9,113.8,53.9,117z M48.3,117c0,2,0.3,2.6,1.2,2.6c0.9,0,1.1-0.7,1.1-2.6s-0.3-2.6-1.1-2.6
		C48.6,114.4,48.3,115,48.3,117z"/>
	<path fill="#EC1C24" d="M67.9,121.1l1.2-2.2c0.5,0.4,1.2,0.6,1.9,0.6c1.2,0,1.9-0.5,1.9-1.6c-0.4,0.4-1.1,0.7-2,0.7
		c-1.9,0-3.1-1.3-3.1-3.2c0-2.1,1.5-3.4,3.8-3.4c2.7,0,4.4,1.9,4.4,4.9c0,3.1-1.9,5.1-4.7,5.1C70.1,121.9,68.8,121.6,67.9,121.1z
		 M72.6,115.4c0-0.6-0.3-0.9-0.9-0.9c-0.6,0-0.9,0.3-0.9,0.9c0,0.6,0.3,0.9,0.9,0.9C72.3,116.3,72.6,116,72.6,115.4z"/>
	<path fill="#EC1C24" d="M89.6,118.9V117H98v1.9H89.6z"/>
	<path fill="#EC1C24" d="M119.1,114.6c0,1.1-0.8,2.2-1.9,3.3l-1.5,1.5h3.5v2.4h-7.5v-2l3.3-3.5c0.4-0.4,0.7-0.9,0.7-1.2
		c0-0.3-0.2-0.5-0.6-0.5c-0.7,0-1.7,0.5-2.6,1.2l-1.2-2.3c1.4-0.9,2.8-1.5,4.3-1.5C117.6,112,119.1,113.1,119.1,114.6z"/>
	<path fill="#EC1C24" d="M142.1,117c0,3.2-1.6,4.9-4.4,4.9c-2.9,0-4.4-1.8-4.4-4.9c0-3.2,1.6-4.9,4.4-4.9
		C140.5,112.1,142.1,113.8,142.1,117z M136.5,117c0,2,0.3,2.6,1.2,2.6c0.9,0,1.1-0.7,1.1-2.6s-0.3-2.6-1.1-2.6
		C136.8,114.4,136.5,115,136.5,117z"/>
	<path fill="#EC1C24" d="M157.4,121.8v-7.1h-1.7v-2.5h4.9v9.6H157.4z"/>
	<path fill="#EC1C24" d="M175.3,121.1l1.2-2.2c0.5,0.4,1.2,0.6,1.9,0.6c1.2,0,1.9-0.5,1.9-1.6c-0.4,0.4-1.1,0.7-2,0.7
		c-1.9,0-3.1-1.3-3.1-3.2c0-2.1,1.5-3.4,3.8-3.4c2.7,0,4.4,1.9,4.4,4.9c0,3.1-1.9,5.1-4.7,5.1C177.4,121.9,176.1,121.6,175.3,121.1z
		 M180,115.4c0-0.6-0.3-0.9-0.9-0.9c-0.6,0-0.9,0.3-0.9,0.9c0,0.6,0.3,0.9,0.9,0.9C179.7,116.3,180,116,180,115.4z"/>
</g>
</svg>
