<?xml version="1.0" encoding="utf-8"?>
<!-- Generator: Adobe Illustrator 18.0.0, SVG Export Plug-In . SVG Version: 6.00 Build 0)  -->
<!DOCTYPE svg PUBLIC "-//W3C//DTD SVG 1.1//EN" "http://www.w3.org/Graphics/SVG/1.1/DTD/svg11.dtd">
<svg version="1.1" id="Layer_1" xmlns="http://www.w3.org/2000/svg" xmlns:xlink="http://www.w3.org/1999/xlink" x="0px" y="0px"
	 viewBox="-69 23.2 238 53.7" enable-background="new -69 23.2 238 53.7" xml:space="preserve">
<rect x="75.4" y="65.2" fill="#EC1C24" width="93.6" height="11.7"/>
<g>
	<path fill="#EC1C24" d="M21.3,76.5c-3.6,0-7.2-1-10.3-3l2.1-3.3c3.5,2.2,7.6,2.9,11.6,2c4-0.9,7.4-3.3,9.7-6.8
		c4.6-7.2,2.4-16.8-4.8-21.3l2.1-3.3c4.4,2.8,7.4,7.1,8.5,12.1c1.1,5.1,0.2,10.2-2.5,14.6c-2.8,4.4-7.1,7.4-12.1,8.5
		C24.2,76.4,22.7,76.5,21.3,76.5z"/>
	<path fill="#EC1C24" d="M20.2,59c-4.4-2.8-7.4-7.1-8.5-12.1s-0.2-10.2,2.5-14.6c5.7-9,17.7-11.7,26.7-6l-2.1,3.3
		c-3.5-2.2-7.6-2.9-11.6-2c-4,0.9-7.4,3.3-9.7,6.8s-2.9,7.6-2,11.6c0.9,4,3.3,7.4,6.8,9.7L20.2,59z"/>
</g>
<g>
	<path fill="#231F20" d="M-69,41.7h3.4l7.8,10.3V41.7h3.6v16.7h-3.1l-8.1-10.6v10.6H-69V41.7z"/>
	<path fill="#231F20" d="M-49.7,41.7h12.6v3.2H-46v3.4h7.9v3.3H-46v3.5h9v3.2h-12.7V41.7z"/>
	<path fill="#231F20" d="M-34.6,41.7h3.9l3.4,11.3l3.7-11.3h3.1l3.7,11.3l3.4-11.3h3.9L-15,58.4h-3.2l-3.8-10.9l-3.8,10.9h-3.2
		L-34.6,41.7z"/>
	<path fill="#231F20" d="M-7.9,55.9l2.2-2.6c1.5,1.2,3.1,2,5,2c1.5,0,2.4-0.6,2.4-1.6v0c0-0.9-0.6-1.4-3.4-2.1
		c-3.4-0.9-5.5-1.8-5.5-5.1v0c0-3,2.4-5,5.8-5c2.4,0,4.5,0.8,6.2,2.1l-1.9,2.8c-1.5-1-2.9-1.6-4.3-1.6c-1.4,0-2.2,0.6-2.2,1.4v0
		c0,1.1,0.7,1.4,3.6,2.2c3.4,0.9,5.3,2.1,5.3,5v0c0,3.3-2.5,5.2-6.1,5.2C-3.4,58.6-5.9,57.7-7.9,55.9z"/>
	<path fill="#231F20" d="M46.8,55.9l2.2-2.6c1.5,1.2,3.1,2,5,2c1.5,0,2.4-0.6,2.4-1.6v0c0-0.9-0.6-1.4-3.4-2.1
		c-3.4-0.9-5.5-1.8-5.5-5.1v0c0-3,2.4-5,5.8-5c2.4,0,4.5,0.8,6.2,2.1l-1.9,2.8c-1.5-1-2.9-1.6-4.3-1.6c-1.4,0-2.2,0.6-2.2,1.4v0
		c0,1.1,0.7,1.4,3.6,2.2c3.4,0.9,5.3,2.1,5.3,5v0c0,3.3-2.5,5.2-6.1,5.2C51.4,58.6,48.8,57.7,46.8,55.9z"/>
	<path fill="#231F20" d="M63.6,41.7h3.7v6.6H74v-6.6h3.7v16.7H74v-6.7h-6.8v6.7h-3.7V41.7z"/>
	<path fill="#231F20" d="M81.4,50.1L81.4,50.1c0-4.8,3.7-8.7,8.9-8.7s8.8,3.8,8.8,8.6v0c0,4.7-3.7,8.6-8.9,8.6
		C85,58.6,81.4,54.8,81.4,50.1z M95.2,50.1L95.2,50.1c0-2.9-2.1-5.3-5.1-5.3c-2.9,0-5,2.3-5,5.2v0c0,2.9,2.1,5.3,5.1,5.3
		C93.2,55.2,95.2,52.9,95.2,50.1z"/>
	<path fill="#231F20" d="M101.8,50.1L101.8,50.1c0-4.8,3.7-8.7,8.9-8.7s8.8,3.8,8.8,8.6v0c0,4.7-3.7,8.6-8.9,8.6
		C105.5,58.6,101.8,54.8,101.8,50.1z M115.7,50.1L115.7,50.1c0-2.9-2.1-5.3-5.1-5.3c-3,0-5,2.3-5,5.2v0c0,2.9,2.1,5.3,5.1,5.3
		C113.6,55.2,115.7,52.9,115.7,50.1z"/>
	<path fill="#231F20" d="M126.4,45.1h-5.1v-3.4h13.8v3.4h-5.1v13.3h-3.7V45.1z"/>
	<path fill="#231F20" d="M138,41.7h12.6v3.2h-8.9v3.4h7.9v3.3h-7.9v3.5h9v3.2H138V41.7z"/>
	<path fill="#231F20" d="M154.6,41.7h7.6c2.1,0,3.8,0.6,4.8,1.7c0.9,0.9,1.4,2.2,1.4,3.8v0c0,2.7-1.4,4.4-3.6,5.2l4.1,5.9h-4.3
		l-3.6-5.3h-2.9v5.3h-3.7L154.6,41.7L154.6,41.7z M161.9,49.8c1.8,0,2.8-0.9,2.8-2.3v0c0-1.6-1.1-2.4-2.9-2.4h-3.6v4.8L161.9,49.8
		L161.9,49.8z"/>
</g>
<path fill="#FFFFFF" d="M84.4,74.4v-4.9h-1.1v-1.8h3.4v6.7H84.4z"/>
<path fill="#FFFFFF" d="M98.8,71c0,2.2-1.1,3.4-3,3.4c-2,0-3.1-1.2-3.1-3.4c0-2.2,1.1-3.4,3.1-3.4C97.6,67.6,98.8,68.8,98.8,71z
	 M94.9,71c0,1.3,0.2,1.8,0.8,1.8c0.6,0,0.8-0.4,0.8-1.8c0-1.3-0.2-1.8-0.8-1.8C95.1,69.2,94.9,69.7,94.9,71z"/>
<path fill="#FFFFFF" d="M115.5,74.4h-2.2v-2l-2.5-4.7h2.2l1.3,2.6l1.3-2.6h2.2l-2.4,4.6L115.5,74.4L115.5,74.4z"/>
<path fill="#FFFFFF" d="M125.4,69.3v0.8h3.1v1.7h-3.1v0.8h3.5v1.7h-5.7v-6.7h5.6v1.7L125.4,69.3L125.4,69.3z"/>
<path fill="#FFFFFF" d="M136.7,73.4l-0.4,0.9h-2.3l2.8-6.7h2.3l2.8,6.7h-2.4l-0.4-0.9H136.7z M138,69.9l-0.7,2h1.4L138,69.9z"/>
<path fill="#FFFFFF" d="M150.3,72.7h-0.8v1.8h-2.2v-6.7h3.2c1.8,0,2.8,0.8,2.8,2.4c0,1-0.4,1.7-1.1,2.1l1.3,2.2h-2.5L150.3,72.7z
	 M150.5,71c0.5,0,0.8-0.3,0.8-0.8c0-0.5-0.3-0.8-0.8-0.8h-1V71C149.5,71,150.5,71,150.5,71z"/>
<path fill="#FFFFFF" d="M164.9,68.4l-0.8,1.7c-0.7-0.4-1.7-0.8-2.3-0.8c-0.3,0-0.4,0.1-0.4,0.3c0,0.8,3.5,0.3,3.5,2.8
	c0,1.5-1.3,2.1-2.8,2.1c-1.2,0-2.5-0.4-3.4-1.1l0.8-1.7c0.7,0.6,1.9,1.1,2.5,1.1c0.4,0,0.6-0.1,0.6-0.4c0-0.8-3.5-0.3-3.5-2.6
	c0-1.3,1.1-2.2,2.9-2.2C163.1,67.6,164.1,67.9,164.9,68.4z"/>
</svg>
