<?xml version="1.0" encoding="utf-8"?>
<!-- Generator: Adobe Illustrator 18.0.0, SVG Export Plug-In . SVG Version: 6.00 Build 0)  -->
<!DOCTYPE svg PUBLIC "-//W3C//DTD SVG 1.1//EN" "http://www.w3.org/Graphics/SVG/1.1/DTD/svg11.dtd">
<svg version="1.1" id="Layer_1" xmlns="http://www.w3.org/2000/svg" xmlns:xlink="http://www.w3.org/1999/xlink" x="0px" y="0px"
	 viewBox="0 38.8 100 22.6" enable-background="new 0 38.8 100 22.6" xml:space="preserve">
<rect x="60.7" y="56.4" fill="#EC1C24" width="39.3" height="4.9"/>
<g>
	<path fill="#EC1C24" d="M38,61.2c-1.5,0-3-0.4-4.3-1.3l0.9-1.4c1.5,0.9,3.2,1.2,4.9,0.9c1.7-0.4,3.1-1.4,4.1-2.9c1.9-3,1-7-2-9
		l0.9-1.4c1.8,1.2,3.1,3,3.6,5.1c0.5,2.1,0.1,4.3-1.1,6.1c-1.2,1.8-3,3.1-5.1,3.6C39.1,61.1,38.5,61.2,38,61.2z"/>
	<path fill="#EC1C24" d="M37.5,53.8c-1.8-1.2-3.1-3-3.6-5.1c-0.5-2.1-0.1-4.3,1.1-6.1c2.4-3.8,7.4-4.9,11.2-2.5l-0.9,1.4
		c-1.5-0.9-3.2-1.2-4.9-0.9c-1.7,0.4-3.1,1.4-4.1,2.9s-1.2,3.2-0.9,4.9c0.4,1.7,1.4,3.1,2.9,4.1L37.5,53.8z"/>
</g>
<g>
	<path fill="#231F20" d="M0,46.5h1.4l3.3,4.3v-4.3h1.5v7H4.9l-3.4-4.4v4.4H0V46.5z"/>
	<path fill="#231F20" d="M8.1,46.5h5.3v1.4H9.7v1.4H13v1.4H9.7v1.5h3.8v1.4H8.1V46.5z"/>
	<path fill="#231F20" d="M14.5,46.5h1.7l1.4,4.7l1.6-4.8h1.3l1.6,4.8l1.4-4.7h1.6l-2.4,7h-1.3L19.8,49l-1.6,4.6h-1.3L14.5,46.5z"/>
	<path fill="#231F20" d="M25.7,52.5l0.9-1.1c0.6,0.5,1.3,0.9,2.1,0.9c0.6,0,1-0.3,1-0.7v0c0-0.4-0.2-0.6-1.4-0.9
		c-1.4-0.4-2.3-0.7-2.3-2.1v0c0-1.3,1-2.1,2.4-2.1c1,0,1.9,0.3,2.6,0.9l-0.8,1.2c-0.6-0.4-1.2-0.7-1.8-0.7c-0.6,0-0.9,0.3-0.9,0.6v0
		c0,0.5,0.3,0.6,1.5,0.9c1.4,0.4,2.2,0.9,2.2,2.1v0c0,1.4-1.1,2.2-2.6,2.2C27.6,53.7,26.5,53.3,25.7,52.5z"/>
	<path fill="#231F20" d="M48.7,52.5l0.9-1.1c0.6,0.5,1.3,0.9,2.1,0.9c0.6,0,1-0.3,1-0.7v0c0-0.4-0.2-0.6-1.4-0.9
		c-1.4-0.4-2.3-0.7-2.3-2.1v0c0-1.3,1-2.1,2.4-2.1c1,0,1.9,0.3,2.6,0.9l-0.8,1.2c-0.6-0.4-1.2-0.7-1.8-0.7c-0.6,0-0.9,0.3-0.9,0.6v0
		c0,0.5,0.3,0.6,1.5,0.9c1.4,0.4,2.2,0.9,2.2,2.1v0c0,1.4-1.1,2.2-2.6,2.2C50.6,53.7,49.5,53.3,48.7,52.5z"/>
	<path fill="#231F20" d="M55.7,46.5h1.5v2.8h2.8v-2.8h1.5v7h-1.5v-2.8h-2.8v2.8h-1.5V46.5z"/>
	<path fill="#231F20" d="M63.2,50.1L63.2,50.1c0-2,1.6-3.6,3.7-3.6c2.2,0,3.7,1.6,3.7,3.6v0c0,2-1.6,3.6-3.7,3.6
		C64.7,53.7,63.2,52.1,63.2,50.1z M69,50.1L69,50.1c0-1.2-0.9-2.2-2.1-2.2c-1.2,0-2.1,1-2.1,2.2v0c0,1.2,0.9,2.2,2.1,2.2
		C68.2,52.2,69,51.3,69,50.1z"/>
	<path fill="#231F20" d="M71.8,50.1L71.8,50.1c0-2,1.6-3.6,3.7-3.6s3.7,1.6,3.7,3.6v0c0,2-1.6,3.6-3.7,3.6S71.8,52.1,71.8,50.1z
		 M77.6,50.1L77.6,50.1c0-1.2-0.9-2.2-2.1-2.2s-2.1,1-2.1,2.2v0c0,1.2,0.9,2.2,2.1,2.2C76.7,52.2,77.6,51.3,77.6,50.1z"/>
	<path fill="#231F20" d="M82.1,48H80v-1.4h5.8V48h-2.1v5.6h-1.5V48z"/>
	<path fill="#231F20" d="M87,46.5h5.3v1.4h-3.7v1.4h3.3v1.4h-3.3v1.5h3.8v1.4H87V46.5z"/>
	<path fill="#231F20" d="M94,46.5h3.2c0.9,0,1.6,0.3,2,0.7c0.4,0.4,0.6,0.9,0.6,1.6v0c0,1.1-0.6,1.8-1.5,2.2l1.7,2.5h-1.8l-1.5-2.2
		h-1.2v2.2H94L94,46.5L94,46.5z M97,50c0.7,0,1.2-0.4,1.2-1v0c0-0.7-0.5-1-1.2-1h-1.5v2L97,50L97,50z"/>
</g>
<path fill="#FFFFFF" d="M64.4,60.3v-2.1H64v-0.7h1.4v2.8H64.4z"/>
<path fill="#FFFFFF" d="M70.5,58.9c0,0.9-0.5,1.4-1.3,1.4c-0.8,0-1.3-0.5-1.3-1.4c0-0.9,0.4-1.4,1.3-1.4C70,57.5,70.5,58,70.5,58.9z
	 M68.9,58.9c0,0.6,0.1,0.8,0.3,0.8s0.3-0.2,0.3-0.8c0-0.6-0.1-0.8-0.3-0.8C69,58.1,68.9,58.3,68.9,58.9z"/>
<path fill="#FFFFFF" d="M77.5,60.3h-0.9v-0.9l-1-2h0.9l0.6,1.1l0.5-1.1h0.9l-1,1.9L77.5,60.3L77.5,60.3z"/>
<path fill="#FFFFFF" d="M81.7,58.2v0.4H83v0.7h-1.3v0.4h1.5v0.7h-2.4v-2.8h2.4v0.7L81.7,58.2L81.7,58.2z"/>
<path fill="#FFFFFF" d="M86.5,59.9l-0.1,0.4h-0.9l1.2-2.8h0.9l1.2,2.8h-1l-0.1-0.4H86.5z M87,58.4l-0.3,0.8h0.6L87,58.4z"/>
<path fill="#FFFFFF" d="M92.1,59.6h-0.4v0.7h-0.9v-2.8h1.4c0.8,0,1.2,0.4,1.2,1c0,0.4-0.1,0.7-0.4,0.9l0.6,0.9h-1L92.1,59.6z
	 M92.2,58.9c0.2,0,0.3-0.1,0.3-0.4c0-0.2-0.1-0.3-0.3-0.3h-0.4v0.7C91.8,58.9,92.2,58.9,92.2,58.9z"/>
<path fill="#FFFFFF" d="M98.3,57.8L98,58.5c-0.3-0.1-0.7-0.3-1-0.3c-0.1,0-0.2,0-0.2,0.1c0,0.4,1.5,0.1,1.5,1.2
	c0,0.6-0.6,0.9-1.2,0.9c-0.5,0-1-0.2-1.4-0.4l0.4-0.7c0.3,0.2,0.8,0.4,1.1,0.4c0.1,0,0.2,0,0.2-0.1c0-0.4-1.5-0.1-1.5-1.1
	c0-0.6,0.5-0.9,1.2-0.9C97.5,57.4,98,57.6,98.3,57.8z"/>
</svg>
